<svg id="Слой_1" data-name="Слой 1" xmlns="http://www.w3.org/2000/svg" viewBox="0 0 1309.88931 378.84061">
  <title>Wings&amp;apos; might only logo transparency</title>
  <path id="Logo" d="M1365.47142,458.60645H999.25061a76.83007,76.83007,0,0,0-76.83007,76.83006v6.58715a57.84539,57.84539,0,0,1-57.84539,57.84539H723.42485a57.84539,57.84539,0,0,1-57.84539-57.84539v-6.58715a76.83007,76.83007,0,0,0-76.83007-76.83006h-365.071c-46.87139,0-85.44057,38.11064-84.60986,84.97466a83.57082,83.57082,0,0,0,83.46006,81.97205h45.88959a.0554.0554,0,0,1,.05478.047,83.60333,83.60333,0,0,0,82.47617,70.58428h45.88959a.05541.05541,0,0,1,.05479.047,83.60332,83.60332,0,0,0,82.47617,70.58429H589.46953a.05541.05541,0,0,1,.05479.047,83.60331,83.60331,0,0,0,82.47616,70.58429h243.999a83.60387,83.60387,0,0,0,82.47616-70.58429.05541.05541,0,0,1,.05479-.047h110.09986a83.60408,83.60408,0,0,0,82.47625-70.58429.05541.05541,0,0,1,.05479-.047h45.88951a83.60407,83.60407,0,0,0,82.47624-70.58429.05541.05541,0,0,1,.05479-.047h44.73964c46.87143,0,85.4407-38.11067,84.60993-84.97474A83.57125,83.57125,0,0,0,1365.47142,458.60645Z" transform="translate(-139.05535 -458.60645)" style="fill: #f7f6ed"/>
</svg>
