<svg id="Слой_1" data-name="Слой 1" xmlns="http://www.w3.org/2000/svg" viewBox="0 0 1312.13002 672.90216">
  <title>Wings&amp;apos; might logo transparency</title>
  <path id="Logo" d="M1365.47142,458.60645H999.25061a76.83007,76.83007,0,0,0-76.83007,76.83006v6.58715a57.84539,57.84539,0,0,1-57.84539,57.84539H723.42485a57.84539,57.84539,0,0,1-57.84539-57.84539v-6.58715a76.83007,76.83007,0,0,0-76.83007-76.83006h-365.071c-46.87139,0-85.44057,38.11064-84.60986,84.97466a83.57082,83.57082,0,0,0,83.46006,81.97205h45.88959a.0554.0554,0,0,1,.05478.047,83.60333,83.60333,0,0,0,82.47617,70.58428h45.88959a.05541.05541,0,0,1,.05479.047,83.60332,83.60332,0,0,0,82.47617,70.58429H589.46953a.05541.05541,0,0,1,.05479.047,83.60331,83.60331,0,0,0,82.47616,70.58429h243.999a83.60387,83.60387,0,0,0,82.47616-70.58429.05541.05541,0,0,1,.05479-.047h110.09986a83.60408,83.60408,0,0,0,82.47625-70.58429.05541.05541,0,0,1,.05479-.047h45.88951a83.60407,83.60407,0,0,0,82.47624-70.58429.05541.05541,0,0,1,.05479-.047h44.73964c46.87143,0,85.4407-38.11067,84.60993-84.97474A83.57125,83.57125,0,0,0,1365.47142,458.60645Z" transform="translate(-139.05535 -458.60645)" style="fill: #f7f6ed"/>
  <polyline points="12.829 474.958 54.078 602.529 95.328 512.074 136.578 602.529 177.828 474.958" style="fill: none;stroke: #f7f6ed;stroke-linecap: round;stroke-linejoin: round;stroke-width: 25px"/>
  <g>
    <line x1="272.50844" y1="512.05795" x2="272.6256" y2="602.55462" style="fill: none;stroke: #f7f6ed;stroke-linecap: round;stroke-linejoin: round;stroke-width: 25px"/>
    <path d="M411.56378,1007.00969a36.34528,36.34528,0,1,1,72.69057,0l.11716,54.15139" transform="translate(-139.05535 -458.60645)" style="fill: none;stroke: #f7f6ed;stroke-linecap: round;stroke-linejoin: round;stroke-width: 25px"/>
  </g>
  <g>
    <path d="M906.72155,1007.03428a36.34528,36.34528,0,0,1,72.69057,0v54.10214" transform="translate(-139.05535 -458.60645)" style="fill: none;stroke: #f7f6ed;stroke-linecap: round;stroke-linejoin: round;stroke-width: 25px"/>
    <path d="M979.41212,1007.03428a36.34528,36.34528,0,0,1,72.69057,0v54.10214" transform="translate(-139.05535 -458.60645)" style="fill: none;stroke: #f7f6ed;stroke-linecap: round;stroke-linejoin: round;stroke-width: 25px"/>
    <line x1="767.6662" y1="512.08255" x2="767.6662" y2="602.52997" style="fill: none;stroke: #f7f6ed;stroke-linecap: round;stroke-linejoin: round;stroke-width: 25px"/>
  </g>
  <g>
    <path d="M1162.41017,1025.50793a36.34734,36.34734,0,0,0,72.69057,0l-.074-18.14043a36.34529,36.34529,0,1,0-72.69057,0Z" transform="translate(-139.05535 -458.60645)" style="fill: none;stroke: #f7f6ed;stroke-linecap: round;stroke-linejoin: round;stroke-width: 25px"/>
    <path d="M1173.05545,1108.23759a36.34529,36.34529,0,0,0,62.04529-25.7l-.12506-111.51539" transform="translate(-139.05535 -458.60645)" style="fill: none;stroke: #f7f6ed;stroke-linecap: round;stroke-linejoin: round;stroke-width: 25px"/>
  </g>
  <g>
    <path d="M536.92271,1025.63366a36.34734,36.34734,0,0,0,72.69057,0l-.074-18.14044a36.34529,36.34529,0,0,0-72.69057,0Z" transform="translate(-139.05535 -458.60645)" style="fill: none;stroke: #f7f6ed;stroke-linecap: round;stroke-linejoin: round;stroke-width: 25px"/>
    <path d="M547.568,1108.36332a36.34529,36.34529,0,0,0,62.04529-25.7l-.12506-111.51539" transform="translate(-139.05535 -458.60645)" style="fill: none;stroke: #f7f6ed;stroke-linecap: round;stroke-linejoin: round;stroke-width: 25px"/>
  </g>
  <g>
    <path d="M1290.72491,1006.6986a36.34528,36.34528,0,0,1,72.69056,0v54.10756" transform="translate(-139.05535 -458.60645)" style="fill: none;stroke: #f7f6ed;stroke-linecap: round;stroke-linejoin: round;stroke-width: 25px"/>
    <line x1="1151.66956" y1="474.93297" x2="1151.66956" y2="602.50392" style="fill: none;stroke: #f7f6ed;stroke-linecap: round;stroke-linejoin: round;stroke-width: 25px"/>
  </g>
  <g>
    <line x1="967.87852" y1="512.0497" x2="967.87852" y2="602.52032" style="fill: none;stroke: #f7f6ed;stroke-linecap: round;stroke-linejoin: round;stroke-width: 25px"/>
    <circle cx="967.87852" cy="474.94937" r="12.5" style="fill: #f7f6ed"/>
  </g>
  <g>
    <line x1="217.25073" y1="512.07436" x2="217.25073" y2="602.54498" style="fill: none;stroke: #f7f6ed;stroke-linecap: round;stroke-linejoin: round;stroke-width: 25px"/>
    <circle cx="217.25073" cy="474.97402" r="12.5" style="fill: #f7f6ed"/>
  </g>
  <g>
    <line x1="1279.24045" y1="474.94937" x2="1279.24045" y2="602.52032" style="fill: none;stroke: #f7f6ed;stroke-linecap: round;stroke-linejoin: round;stroke-width: 25px"/>
    <line x1="1259.78447" y1="512.0497" x2="1299.63002" y2="512.0497" style="fill: none;stroke: #f7f6ed;stroke-linecap: round;stroke-linejoin: round;stroke-width: 25px"/>
  </g>
  <path d="M723.35365,970.68081H684.736a22.61766,22.61766,0,1,0,0,45.23531h16a22.61765,22.61765,0,1,1,0,45.23531H662.11832" transform="translate(-139.05535 -458.60645)" style="fill: none;stroke: #f7f6ed;stroke-linecap: round;stroke-linejoin: round;stroke-width: 25px"/>
  <path d="M763.51131,933.56407a22.61767,22.61767,0,0,1,12.24059,29.55139" transform="translate(-139.05535 -458.60645)" style="fill: none;stroke: #f7f6ed;stroke-linecap: round;stroke-linejoin: round;stroke-width: 20px"/>
</svg>
